<svg xmlns="http://www.w3.org/2000/svg" viewBox="0 0 300 300" style="background-color: #1a1a1a;">
<style>
@keyframes float { 0%, 100% { transform: translateY(0px); } 50% { transform: translateY(-5px); } }
@keyframes drift-wide { 0% { transform: translate(0, 0); } 50% { transform: translate(5px, 15px); } 100% { transform: translate(0, 0); } }
@keyframes drift-vertical { 0% { transform: translate(0, 0); } 50% { transform: translate(10px, -5px); } 100% { transform: translate(0, 0); } }
@keyframes fade-breath { 0%, 100% { opacity: 0.4; } 50% { opacity: 1; } }
@keyframes spore-rise { 0% { transform: translateY(0); opacity: 0.7; } 100% { transform: translateY(-8px); opacity: 0.2; } }
</style>
<defs>
<filter id="noise" x="0%" y="0%" width="100%" height="100%">
<feTurbulence type="fractalNoise" baseFrequency="0.8" numOctaves="3" result="noise"/>
<feColorMatrix type="matrix" values="1 0 0 0 0  0 1 0 0 0  0 0 1 0 0  0 0 0 0.3 0" in="noise" result="coloredNoise"/>
<feComposite operator="in" in="coloredNoise" in2="SourceGraphic" result="composite"/>
<feBlend mode="multiply" in="composite" in2="SourceGraphic"/>
</filter>
<filter id="glow" x="-50%" y="-50%" width="200%" height="200%">
<feGaussianBlur stdDeviation="3" result="coloredBlur"/>
<feMerge><feMergeNode in="coloredBlur"/><feMergeNode in="SourceGraphic"/></feMerge>
</filter>
<radialGradient id="capGrad" cx="50%" cy="40%" r="80%" fx="42%" fy="26%">
<stop offset="0%" stop-color="#d946ef" stop-opacity="0.62666667"/>
<stop offset="50%" stop-color="#10b981" stop-opacity="0.31333333"/>
<stop offset="100%" stop-color="#111" stop-opacity="1"/>
</radialGradient>
<radialGradient id="auraGrad" cx="50%" cy="50%" r="50%">
<stop offset="0%" stop-color="#d946ef" stop-opacity="1"/>
<stop offset="50%" stop-color="#10b981" stop-opacity="0.15"/>
<stop offset="100%" stop-color="#d946ef" stop-opacity="0"/>
</radialGradient>
<clipPath id="gillClip"><rect x="0" y="137" width="300" height="200"/></clipPath>
</defs>
<circle cx="150" cy="150" r="140" fill="url(#auraGrad)" opacity="0.6" />
<g style="animation: float 3s ease-in-out infinite;">
<path d="M 140 200 Q 130 216 120 228" fill="none" stroke="#6b7280" stroke-width="1.5" opacity="0.3" stroke-linecap="round"/><path d="M 145 200 Q 140 216 135 228" fill="none" stroke="#ef4444" stroke-width="1.5" opacity="0.3" stroke-linecap="round"/><path d="M 150 200 Q 150 216 150 228" fill="none" stroke="#10b981" stroke-width="1.5" opacity="0.3" stroke-linecap="round"/><path d="M 155 200 Q 160 216 165 228" fill="none" stroke="#3b82f6" stroke-width="1.5" opacity="0.3" stroke-linecap="round"/><path d="M 160 200 Q 170 216 180 228" fill="none" stroke="#facc15" stroke-width="1.5" opacity="0.3" stroke-linecap="round"/>
<rect x="135" y="120" width="30" height="80" fill="#E5E7EB" rx="15"/>
<path d="M 135 130 Q 150 130 165 130" fill="none" stroke="#D1D5DB" stroke-width="2"/>
<ellipse cx="150" cy="132" rx="28" ry="8" fill="#d946ef" fill-opacity="0.25" stroke="#d946ef" stroke-width="1.5" filter="url(#glow)" opacity="0.8"/>
<path d="M 100,120 Q 140,85 150,50 Q 160,85 200,120 Z" fill="url(#capGrad)"/>
<path d="M 100,120 Q 140,85 150,50 Q 160,85 200,120 Z" fill="#000" filter="url(#noise)" opacity="0.4" style="mix-blend-mode: overlay;"/>
<path d="M 100,120 Q 140,85 150,50 Q 160,85 200,120 Z" fill="none" stroke="white" stroke-opacity="0.2" stroke-width="1.5"/>
<g clip-path="url(#gillClip)" opacity="0.3" stroke="#d946ef" stroke-width="1"><line x1="150" y1="131" x2="115" y2="153"/><line x1="150" y1="131" x2="126" y2="153"/><line x1="150" y1="131" x2="138" y2="153"/><line x1="150" y1="131" x2="150" y2="153"/><line x1="150" y1="131" x2="161" y2="153"/><line x1="150" y1="131" x2="173" y2="153"/><line x1="150" y1="131" x2="185" y2="153"/></g>
<g fill="#10b981" opacity="0.2">
<ellipse cx="125" cy="127" rx="10" ry="8"/>
<ellipse cx="165" cy="120" rx="10" ry="8"/>
<ellipse cx="140" cy="108" rx="10" ry="8"/>
</g>
<circle cx="110" cy="75" r="3" fill="#10b981" opacity="0.6" style="animation: spore-rise 3s ease-in-out infinite; animation-delay: -0s"/><circle cx="150" cy="65" r="2" fill="#10b981" opacity="0.6" style="animation: spore-rise 4s ease-in-out infinite; animation-delay: -0.7s"/><circle cx="190" cy="75" r="3" fill="#10b981" opacity="0.6" style="animation: spore-rise 5s ease-in-out infinite; animation-delay: -1.4s"/>
<g style="animation: drift-wide 4s ease-in-out infinite; animation-delay: -0s"><circle cx="230" cy="150" r="3" fill="#6b7280" style="animation: fade-breath 2s ease-in-out infinite; animation-delay: -0s"/></g><g style="animation: drift-vertical 5s ease-in-out infinite; animation-delay: -0.5s"><circle cx="206" cy="206" r="5" fill="#ef4444" filter="url(#glow)" style="animation: fade-breath 3s ease-in-out infinite; animation-delay: -0.5s"/></g><g style="animation: drift-wide 6s ease-in-out infinite; animation-delay: -1s"><circle cx="150" cy="230" r="5" fill="#10b981" filter="url(#glow)" style="animation: fade-breath 2s ease-in-out infinite; animation-delay: -1s"/></g><g style="animation: drift-vertical 4s ease-in-out infinite; animation-delay: -1.5s"><circle cx="93" cy="206" r="5" fill="#3b82f6" filter="url(#glow)" style="animation: fade-breath 3s ease-in-out infinite; animation-delay: -1.5s"/></g><g style="animation: drift-wide 5s ease-in-out infinite; animation-delay: -2s"><circle cx="70" cy="150" r="5" fill="#facc15" filter="url(#glow)" style="animation: fade-breath 2s ease-in-out infinite; animation-delay: -2s"/></g><g style="animation: drift-vertical 6s ease-in-out infinite; animation-delay: -2.5s"><circle cx="93" cy="93" r="3" fill="#6b7280" style="animation: fade-breath 3s ease-in-out infinite; animation-delay: -2.5s"/></g><g style="animation: drift-wide 4s ease-in-out infinite; animation-delay: -3s"><circle cx="150" cy="70" r="5" fill="#ef4444" filter="url(#glow)" style="animation: fade-breath 2s ease-in-out infinite; animation-delay: -3s"/></g><g style="animation: drift-vertical 5s ease-in-out infinite; animation-delay: -3.5s"><circle cx="206" cy="93" r="5" fill="#10b981" filter="url(#glow)" style="animation: fade-breath 3s ease-in-out infinite; animation-delay: -3.5s"/></g>
<g transform="translate(150, 240)"><circle cx="-40" cy="0" r="3" fill="#d946ef" opacity="1"/><circle cx="-20" cy="0" r="3" fill="#d946ef" opacity="1"/><circle cx="0" cy="0" r="3" fill="#d946ef" opacity="1"/><circle cx="20" cy="0" r="3" fill="#d946ef" opacity="1"/><circle cx="40" cy="0" r="3" fill="#d946ef" opacity="1"/></g>
</g>
</svg>